<?xml version="1.0" encoding="UTF-8" standalone="no"?>
<!-- Created with Inkscape (http://www.inkscape.org/) -->

<svg
   width="453.73584"
   height="453.73627"
   viewBox="0 0 453.73584 453.73627"
   version="1.1"
   id="svg1"
   inkscape:version="1.3 (0e150ed6c4, 2023-07-21)"
   sodipodi:docname="favicon.svg"
   xmlns:inkscape="http://www.inkscape.org/namespaces/inkscape"
   xmlns:sodipodi="http://sodipodi.sourceforge.net/DTD/sodipodi-0.dtd"
   xmlns="http://www.w3.org/2000/svg"
   xmlns:svg="http://www.w3.org/2000/svg">
  <sodipodi:namedview
     id="namedview1"
     pagecolor="#ffffff"
     bordercolor="#666666"
     borderopacity="1.0"
     inkscape:showpageshadow="2"
     inkscape:pageopacity="0.0"
     inkscape:pagecheckerboard="false"
     inkscape:deskcolor="#d1d1d1"
     inkscape:document-units="px"
     inkscape:zoom="0.70710678"
     inkscape:cx="253.85133"
     inkscape:cy="343.6539"
     inkscape:window-width="1440"
     inkscape:window-height="828"
     inkscape:window-x="1280"
     inkscape:window-y="225"
     inkscape:window-maximized="1"
     inkscape:current-layer="layer1"
     labelstyle="default"
     inkscape:clip-to-page="false" />
  <defs
     id="defs1">
    <rect
       x="40.836914"
       y="308.75385"
       width="63.636169"
       height="46.841125"
       id="rect26" />
    <rect
       x="52.518387"
       y="281.63773"
       width="126.47993"
       height="91.232307"
       id="rect25" />
  </defs>
  <g
     inkscape:label="Layer 1"
     inkscape:groupmode="layer"
     id="layer1"
     transform="translate(-93.132072,-341.13184)">
    <text
       xml:space="preserve"
       id="text26"
       style="font-size:26.6667px;line-height:1.25;font-family:sans-serif;-inkscape-font-specification:'sans-serif, Normal';word-spacing:0px;white-space:pre;shape-inside:url(#rect26)" />
    <path
       style="fill:#000002;fill-rule:evenodd;stroke:#3488de;stroke-width:6.076;stroke-linecap:round;stroke-linejoin:round;fill-opacity:1;stroke-opacity:1"
       id="path4"
       sodipodi:type="arc"
       sodipodi:cx="319.99976"
       sodipodi:cy="567.99976"
       sodipodi:rx="223.78348"
       sodipodi:ry="223.78348"
       sodipodi:start="2.9119073"
       sodipodi:end="2.9061652"
       sodipodi:open="true"
       sodipodi:arc-type="arc"
       d="M 102.09326,618.9488 A 223.78348,223.78348 0 0 1 268.73796,350.16663 223.78348,223.78348 0 0 1 537.75907,516.4253 223.78348,223.78348 0 0 1 371.88675,785.68481 223.78348,223.78348 0 0 1 102.38941,620.19919" />
    <path
       id="path1"
       style="fill:#3488de;fill-opacity:1;fill-rule:evenodd;stroke:#000000;stroke-width:6.08;stroke-linejoin:round;stroke-dasharray:none"
       d="m 379.53093,497.84109 c -9.37839,-0.5089 -18.78139,0.32505 -27.92383,2.47656 -26.43358,6.29841 -49.09506,23.22863 -62.63086,46.79102 -0.0573,-0.0242 0.13754,-0.13499 0.0802,-0.15902 -7.33922,13.97834 -20.35967,24.10433 -35.71484,27.77539 -20.35537,4.76409 -41.89822,-2.40248 -55.11148,-18.6027 -24.79805,19.93475 -36.02683,52.28529 -28.9121,83.29687 l 0.10937,0.46485 c 10.68809,44.55485 55.44142,72.0356 100.01172,61.41211 17.33221,-4.13134 32.87618,-13.72752 44.33594,-27.3711 23.55623,18.38877 54.1822,25.09956 83.26953,18.2461 52.90697,-12.6109 85.60454,-65.6881 73.07031,-118.61328 -10.07241,-42.52816 -46.94357,-73.34781 -90.58398,-75.7168 z"
       sodipodi:nodetypes="ccccccccccccc" />
    <path
       style="opacity:0.994;fill:#ffffff;fill-rule:evenodd;stroke:#ffffff;stroke-width:3.77953;stroke-linejoin:bevel;stroke-opacity:1"
       id="path2"
       sodipodi:type="arc"
       sodipodi:cx="245.46825"
       sodipodi:cy="626.64838"
       sodipodi:rx="20.797857"
       sodipodi:ry="20.797857"
       sodipodi:start="2.9119073"
       sodipodi:end="2.9116363"
       sodipodi:open="true"
       sodipodi:arc-type="arc"
       d="m 225.21658,631.38345 a 20.797857,20.797857 0 0 1 15.51522,-24.98642 20.797857,20.797857 0 0 1 24.98747,15.51353 20.797857,20.797857 0 0 1 -15.51184,24.98852 20.797857,20.797857 0 0 1 -24.98957,-15.51014" />
    <path
       style="opacity:0.994;fill:#ffffff;fill-rule:evenodd;stroke:#ffffff;stroke-width:3.77953;stroke-linejoin:bevel;stroke-opacity:1"
       id="path3"
       sodipodi:type="arc"
       sodipodi:cx="376.90463"
       sodipodi:cy="599.70148"
       sodipodi:rx="30.400684"
       sodipodi:ry="30.400684"
       sodipodi:start="2.9119073"
       sodipodi:end="2.9118454"
       sodipodi:open="true"
       sodipodi:arc-type="arc"
       d="m 347.30233,606.62284 a 30.400684,30.400684 0 0 1 22.68049,-36.52356 30.400684,30.400684 0 0 1 36.5239,22.67992 30.400684,30.400684 0 0 1 -22.67935,36.52426 30.400684,30.400684 0 0 1 -36.52461,-22.67879" />
    <path
       id="path8-5"
       style="fill:#dddb43;fill-opacity:1;fill-rule:evenodd;stroke:#000000;stroke-width:6.076;stroke-linecap:round;stroke-linejoin:round;stroke-dasharray:none;stroke-dashoffset:0"
       d="m 243.8978,391.38694 c -18.28547,-1.09958 -36.86497,6.79953 -48.70319,20.79279 -11.2697,13.06517 -16.52364,31.1243 -13.80868,48.18579 2.13875,13.96373 9.4149,27.0845 20.16068,36.26024 -8.17204,12.94559 -9.20756,30.05081 -2.60585,43.87223 14.16155,30.4936 55.87156,35.23029 76.61633,10.58832 13.82932,-16.14368 13.85263,-38.98559 4.29166,-54.37321 11.19544,-9.57161 18.4643,-23.45644 20.29798,-38.03385 0.43446,-3.45381 0.5638,-6.9465 0.36798,-10.42991 -0.80575,-16.52532 -8.76488,-32.57262 -21.55287,-43.09628 -9.81845,-8.17061 -22.29549,-13.12648 -35.06404,-13.76612 z"
       sodipodi:nodetypes="cccccccsccc" />
    <g
       id="g1"
       style="fill:#000002;fill-opacity:1">
      <text
         xml:space="preserve"
         id="text25"
         style="font-size:26.6667px;line-height:1.25;font-family:sans-serif;-inkscape-font-specification:'sans-serif, Normal';word-spacing:0px;white-space:pre;shape-inside:url(#rect25);stroke-width:0.375005;fill:#000002;fill-opacity:1"
         transform="matrix(0,-2.6666286,2.6666286,0,-549.69897,621.05342)"><tspan
           x="52.517578"
           y="305.90204"
           id="tspan2">E </tspan></text>
      <text
         xml:space="preserve"
         style="font-size:63.4323px;line-height:1.25;font-family:sans-serif;-inkscape-font-specification:'sans-serif, Normal';word-spacing:0px;stroke-width:0.999998;fill:#000002;fill-opacity:1"
         x="230.49025"
         y="518.63019"
         id="text27"><tspan
           sodipodi:role="line"
           id="tspan27"
           x="230.49025"
           y="518.63019"
           style="stroke-width:0.999998;fill:#000002;fill-opacity:1">L</tspan></text>
    </g>
    <path
       style="fill:none;stroke:#ffffff;stroke-width:20.98;stroke-linecap:round;stroke-linejoin:round;stroke-dasharray:none;stroke-opacity:1"
       d="m 209.0738,729.19225 c 0,0 108.84043,64.83528 241.03288,-24.45361"
       id="path27" />
  </g>
</svg>
